<svg width="1200" height="630" viewBox="0 0 1200 630" fill="none" xmlns="http://www.w3.org/2000/svg" role="img" aria-labelledby="title desc">
  <title id="title">local-search OpenGraph card</title>
  <desc id="desc">Free structured web search for agents through your local browser.</desc>
  <defs>
    <linearGradient id="bg" x1="0" y1="0" x2="1200" y2="630" gradientUnits="userSpaceOnUse">
      <stop offset="0" stop-color="#07111f"/>
      <stop offset="0.45" stop-color="#10243d"/>
      <stop offset="1" stop-color="#0f3d32"/>
    </linearGradient>
    <radialGradient id="glow" cx="0" cy="0" r="1" gradientUnits="userSpaceOnUse" gradientTransform="translate(900 170) rotate(135) scale(520 360)">
      <stop stop-color="#54f6b4" stop-opacity="0.55"/>
      <stop offset="1" stop-color="#54f6b4" stop-opacity="0"/>
    </radialGradient>
    <filter id="shadow" x="-20%" y="-20%" width="140%" height="140%" color-interpolation-filters="sRGB">
      <feDropShadow dx="0" dy="22" stdDeviation="28" flood-color="#000" flood-opacity="0.35"/>
    </filter>
  </defs>

  <rect width="1200" height="630" rx="36" fill="url(#bg)"/>
  <rect width="1200" height="630" rx="36" fill="url(#glow)"/>
  <path d="M0 505C150 444 250 604 420 541C575 484 592 360 755 344C931 326 1010 468 1200 388V630H0V505Z" fill="#102033" fill-opacity="0.72"/>
  <path d="M65 80H1135V550H65V80Z" stroke="#B8F7DC" stroke-opacity="0.15" stroke-width="2"/>

  <g filter="url(#shadow)">
    <rect x="682" y="122" width="380" height="318" rx="24" fill="#07111F" stroke="#8DEEC6" stroke-opacity="0.28"/>
    <rect x="712" y="154" width="320" height="42" rx="21" fill="#122C45" stroke="#8DEEC6" stroke-opacity="0.24"/>
    <circle cx="738" cy="175" r="8" fill="#54F6B4"/>
    <rect x="758" y="169" width="202" height="12" rx="6" fill="#DDFEEF" fill-opacity="0.72"/>

    <rect x="722" y="228" width="290" height="52" rx="14" fill="#10243D"/>
    <rect x="742" y="246" width="120" height="10" rx="5" fill="#54F6B4"/>
    <rect x="742" y="263" width="230" height="8" rx="4" fill="#DDFEEF" fill-opacity="0.32"/>

    <rect x="722" y="296" width="290" height="52" rx="14" fill="#10243D"/>
    <rect x="742" y="314" width="158" height="10" rx="5" fill="#54F6B4"/>
    <rect x="742" y="331" width="210" height="8" rx="4" fill="#DDFEEF" fill-opacity="0.32"/>

    <rect x="722" y="364" width="290" height="52" rx="14" fill="#10243D"/>
    <rect x="742" y="382" width="92" height="10" rx="5" fill="#54F6B4"/>
    <rect x="742" y="399" width="240" height="8" rx="4" fill="#DDFEEF" fill-opacity="0.32"/>
  </g>

  <g>
    <text x="110" y="165" fill="#54F6B4" font-family="ui-monospace, SFMono-Regular, Menlo, monospace" font-size="30" font-weight="700">lsearch</text>
    <text x="110" y="245" fill="#F4FFF9" font-family="Inter, ui-sans-serif, system-ui, -apple-system, BlinkMacSystemFont, Segoe UI, sans-serif" font-size="82" font-weight="800" letter-spacing="-3">local-search</text>
    <text x="114" y="312" fill="#DDFEEF" fill-opacity="0.84" font-family="Inter, ui-sans-serif, system-ui, -apple-system, BlinkMacSystemFont, Segoe UI, sans-serif" font-size="34" font-weight="500">Free structured web search for agents,</text>
    <text x="114" y="357" fill="#DDFEEF" fill-opacity="0.84" font-family="Inter, ui-sans-serif, system-ui, -apple-system, BlinkMacSystemFont, Segoe UI, sans-serif" font-size="34" font-weight="500">powered by your local browser.</text>

    <g font-family="ui-monospace, SFMono-Regular, Menlo, monospace" font-size="23" font-weight="650">
      <rect x="112" y="424" width="153" height="44" rx="22" fill="#54F6B4" fill-opacity="0.15" stroke="#54F6B4" stroke-opacity="0.35"/>
      <text x="136" y="453" fill="#DDFEEF">search</text>

      <rect x="284" y="424" width="113" height="44" rx="22" fill="#54F6B4" fill-opacity="0.15" stroke="#54F6B4" stroke-opacity="0.35"/>
      <text x="309" y="453" fill="#DDFEEF">read</text>

      <rect x="416" y="424" width="147" height="44" rx="22" fill="#54F6B4" fill-opacity="0.15" stroke="#54F6B4" stroke-opacity="0.35"/>
      <text x="440" y="453" fill="#DDFEEF">extract</text>

      <rect x="582" y="424" width="98" height="44" rx="22" fill="#54F6B4" fill-opacity="0.15" stroke="#54F6B4" stroke-opacity="0.35"/>
      <text x="607" y="453" fill="#DDFEEF">map</text>
    </g>

    <text x="112" y="520" fill="#9BEBCB" fill-opacity="0.82" font-family="ui-monospace, SFMono-Regular, Menlo, monospace" font-size="24">No API key · No metered search bill · Signed-in browser state</text>
  </g>
</svg>
